<svg width="76" height="40" viewBox="0 0 76 40" fill="none" xmlns="http://www.w3.org/2000/svg">
<g clip-path="url(#clip0_3566_60279)">
<path fill-rule="evenodd" clip-rule="evenodd" d="M76 0H0V40H76V0ZM56.7207 20.2773C56.7207 22.0059 56.584 23.5537 56.3105 24.9209C56.0469 26.2783 55.627 27.4307 55.0508 28.3779C54.4746 29.3252 53.7227 30.0479 52.7949 30.5459C51.8672 31.0439 50.7441 31.293 49.4258 31.293C47.7754 31.293 46.4131 30.8584 45.3389 29.9893C44.2646 29.1104 43.4688 27.8506 42.9512 26.21C42.4336 24.5596 42.1748 22.582 42.1748 20.2773C42.1748 17.9727 42.4092 16 42.8779 14.3594C43.3564 12.709 44.1279 11.4443 45.1924 10.5654C46.2568 9.68652 47.668 9.24707 49.4258 9.24707C51.0859 9.24707 52.4531 9.68652 53.5273 10.5654C54.6113 11.4346 55.4121 12.6943 55.9297 14.3447C56.457 15.9854 56.7207 17.9629 56.7207 20.2773ZM45.6465 20.2773C45.6465 22.084 45.7637 23.5928 45.998 24.8037C46.2422 26.0146 46.6426 26.9229 47.1992 27.5283C47.7559 28.124 48.498 28.4219 49.4258 28.4219C50.3535 28.4219 51.0957 28.124 51.6523 27.5283C52.209 26.9326 52.6094 26.0293 52.8535 24.8184C53.1074 23.6074 53.2344 22.0938 53.2344 20.2773C53.2344 18.4805 53.1123 16.9766 52.8682 15.7656C52.624 14.5547 52.2236 13.6465 51.667 13.041C51.1104 12.4258 50.3633 12.1182 49.4258 12.1182C48.4883 12.1182 47.7412 12.4258 47.1846 13.041C46.6377 13.6465 46.2422 14.5547 45.998 15.7656C45.7637 16.9766 45.6465 18.4805 45.6465 20.2773ZM20.9785 16.9961C21.3691 16.2832 21.5645 15.4434 21.5645 14.4766C21.5645 12.8945 20.9688 11.6348 19.7773 10.6973C18.5859 9.75 16.8916 9.27637 14.6943 9.27637C13.2002 9.27637 11.8916 9.48633 10.7686 9.90625C9.64551 10.3262 8.67871 10.8389 7.86816 11.4443L9.52344 13.832C9.97266 13.5391 10.4463 13.2656 10.9443 13.0117C11.4424 12.7578 11.9844 12.5479 12.5703 12.3818C13.166 12.2158 13.8252 12.1328 14.5479 12.1328C15.7197 12.1328 16.6035 12.3916 17.1992 12.9092C17.7949 13.417 18.0928 14.1299 18.0928 15.0479C18.0928 15.751 17.9219 16.3662 17.5801 16.8936C17.248 17.4209 16.7061 17.8359 15.9541 18.1387C15.2021 18.4316 14.2061 18.5781 12.9658 18.5781H11.0615V21.3467H12.9512C14.25 21.3467 15.3096 21.4688 16.1299 21.7129C16.96 21.957 17.5703 22.3232 17.9609 22.8115C18.3613 23.2998 18.5615 23.9248 18.5615 24.6865C18.5615 25.8682 18.1807 26.7959 17.4189 27.4697C16.6572 28.1338 15.3828 28.4658 13.5957 28.4658C12.6777 28.4658 11.7061 28.3438 10.6807 28.0996C9.65527 27.8555 8.68848 27.5088 7.78027 27.0596V30.1211C8.66895 30.5312 9.60645 30.8291 10.5928 31.0146C11.5889 31.2002 12.668 31.293 13.8301 31.293C15.7637 31.293 17.3457 31.0146 18.5762 30.458C19.8066 29.9014 20.7197 29.1396 21.3154 28.1729C21.9111 27.1963 22.209 26.0879 22.209 24.8477C22.209 23.4316 21.7695 22.2939 20.8906 21.4346C20.0215 20.5752 18.7324 20.0381 17.0234 19.8232V19.7207C17.9121 19.5254 18.6934 19.2031 19.3672 18.7539C20.0508 18.2949 20.5879 17.709 20.9785 16.9961ZM25.3438 18.1533C25.168 19.374 25.0801 20.6143 25.0801 21.874C25.0801 23.4561 25.2705 24.8379 25.6514 26.0195C26.0322 27.1914 26.5645 28.168 27.248 28.9492C27.9316 29.7305 28.7275 30.3164 29.6357 30.707C30.5537 31.0977 31.5449 31.293 32.6094 31.293C34.0547 31.293 35.2998 31 36.3447 30.4141C37.3994 29.8281 38.21 28.9883 38.7764 27.8945C39.3525 26.8008 39.6406 25.4971 39.6406 23.9834C39.6406 22.5771 39.3867 21.3809 38.8789 20.3945C38.3809 19.4082 37.668 18.6562 36.7402 18.1387C35.8125 17.6113 34.7236 17.3477 33.4736 17.3477C32.6338 17.3477 31.8965 17.4648 31.2617 17.6992C30.627 17.9238 30.0898 18.2266 29.6504 18.6074C29.2109 18.9883 28.8447 19.4229 28.5518 19.9111H28.376C28.4443 18.3975 28.6934 17.0547 29.123 15.8828C29.5527 14.7012 30.2705 13.7734 31.2764 13.0996C32.2822 12.416 33.6836 12.0742 35.4805 12.0742C35.9297 12.0742 36.3789 12.1035 36.8281 12.1621C37.2871 12.2207 37.707 12.3037 38.0879 12.4111V9.55469C37.7363 9.4668 37.292 9.40332 36.7549 9.36426C36.2178 9.3252 35.7344 9.30566 35.3047 9.30566C33.6445 9.30566 32.2236 9.54004 31.042 10.0088C29.8604 10.4678 28.8789 11.1025 28.0977 11.9131C27.3262 12.7236 26.7207 13.6611 26.2812 14.7256C25.8418 15.79 25.5293 16.9326 25.3438 18.1533ZM35.2314 27.3672C34.5576 28.0898 33.6641 28.4512 32.5508 28.4512C31.8867 28.4512 31.3057 28.3047 30.8076 28.0117C30.3096 27.7188 29.8945 27.333 29.5625 26.8545C29.2305 26.3662 28.9814 25.834 28.8154 25.2578C28.6494 24.6816 28.5664 24.1104 28.5664 23.5439C28.5664 22.9873 28.7324 22.4404 29.0645 21.9033C29.4062 21.3662 29.8848 20.9219 30.5 20.5703C31.1152 20.2188 31.833 20.043 32.6533 20.043C33.8545 20.043 34.7529 20.3994 35.3486 21.1123C35.9541 21.8252 36.2568 22.792 36.2568 24.0127C36.2568 25.5166 35.915 26.6348 35.2314 27.3672ZM67.2529 18.3584C68.1318 17.4404 68.5713 16.1562 68.5713 14.5059C68.5713 13.4023 68.3662 12.4648 67.9561 11.6934C67.5557 10.9219 66.9941 10.3359 66.2715 9.93555C65.5586 9.52539 64.7285 9.32031 63.7812 9.32031C62.2871 9.32031 61.1055 9.76953 60.2363 10.668C59.377 11.5664 58.9473 12.8457 58.9473 14.5059C58.9473 16.1758 59.3916 17.4648 60.2803 18.373C61.1787 19.2715 62.3262 19.7207 63.7227 19.7207C65.207 19.7207 66.3838 19.2666 67.2529 18.3584ZM61.8916 16.9668C61.5107 16.4102 61.3203 15.5898 61.3203 14.5059C61.3203 13.4219 61.5156 12.6162 61.9062 12.0889C62.2969 11.5518 62.9121 11.2832 63.752 11.2832C64.6016 11.2832 65.2168 11.5518 65.5977 12.0889C65.9785 12.626 66.1689 13.4316 66.1689 14.5059C66.1689 15.5898 65.9736 16.4102 65.583 16.9668C65.2021 17.5137 64.5918 17.7871 63.752 17.7871C62.9023 17.7871 62.2822 17.5137 61.8916 16.9668Z" fill="white"/>
</g>
<defs>
<clipPath id="clip0_3566_60279">
<rect width="76" height="40" rx="8" fill="white"/>
</clipPath>
</defs>
</svg>
