<svg width="84" height="146" viewBox="0 0 84 146" fill="none" xmlns="http://www.w3.org/2000/svg">
<path d="M22.7114 67.0445C22.8585 70.7308 24.7982 74.1139 27.9087 76.1095C28.7772 76.6334 29.7683 76.9207 30.7829 76.9426C31.507 76.9481 32.2199 76.7637 32.8501 76.4078C34.3453 75.4447 35.2032 73.7516 35.0941 71.9795C34.9478 68.2925 33.008 64.9084 29.8969 62.9127C28.4514 61.8388 26.5043 61.7248 24.9428 62.6227C23.3813 63.5206 22.5043 65.2585 22.7114 67.0445V67.0445ZM26.8741 65.9487C26.9227 65.9256 26.9765 65.9152 27.0302 65.9187C27.3656 65.9472 27.6887 66.0581 27.9707 66.2415C29.8898 67.5374 31.098 69.6478 31.2418 71.9551V71.9571C31.2379 72.6438 31.0499 73.006 30.9333 73.0735C30.8186 73.143 30.4198 73.1186 29.8348 72.7808C27.9159 71.4847 26.7078 69.3744 26.5637 67.0672C26.5675 66.3784 26.7556 66.0162 26.8741 65.9487Z" fill="#8A8A8A"/>
<path d="M32.3068 81.9787C31.9086 81.1312 30.9558 80.6936 30.0514 80.943L15.4416 84.9604C14.4162 85.2422 13.8141 86.2999 14.0967 87.3228C14.3792 88.3456 15.4395 88.9463 16.4649 88.6644L29.5097 85.0787L33.014 92.5166C33.4686 93.4725 34.6124 93.8819 35.5725 93.4324C36.5327 92.983 36.9479 91.8438 36.5014 90.8841L35.1621 88.0414L45.8161 84.6113L56.9084 103.156L56.8652 110.136L27.1396 93.0177C26.2182 92.4877 25.0407 92.8029 24.509 93.7218C23.9773 94.6407 24.2926 95.8155 25.2135 96.3464L57.8076 115.118C58.4019 115.459 59.1334 115.46 59.7284 115.12C60.3233 114.779 60.6921 114.149 60.6968 113.465L60.7645 102.644C60.7664 102.293 60.6721 101.948 60.4918 101.647L48.3386 81.3277C47.8799 80.557 46.9467 80.207 46.0927 80.4851L33.5113 84.5362L32.3068 81.9787Z" fill="#8A8A8A"/>
<path d="M83.957 30.6926C83.9235 30.4698 83.851 30.2545 83.7428 30.0568L83.7423 30.055L83.7418 30.0546C83.6238 29.8611 83.4724 29.6899 83.2946 29.549C83.2509 29.5128 83.2086 29.4793 83.162 29.4474C83.1185 29.4173 83.0833 29.3781 83.0369 29.3514L32.4605 0.227661C32.3916 0.199715 32.321 0.176017 32.2491 0.156702C32.1216 0.097217 31.9878 0.052328 31.8501 0.0228928C31.6097 -0.00905765 31.3659 -0.00755743 31.1259 0.0273506C31.0019 0.0560451 30.8811 0.0971812 30.7655 0.150131C30.686 0.171214 30.6082 0.197749 30.5324 0.229544L22.1723 5.05178L22.1676 5.0537C22.1492 5.06425 22.1361 5.08043 22.1182 5.09146C22.1034 5.10072 22.0862 5.10412 22.0716 5.11375L0.867153 19.0294C0.814489 19.0696 0.764095 19.1128 0.7162 19.1586C0.65075 19.2077 0.588547 19.261 0.52998 19.3181C0.22318 19.6221 0.0421512 20.0301 0.0228058 20.461C0.0173933 20.5192 7.11545e-08 20.5746 7.11545e-08 20.6337V102.747C-0.000186609 103.434 0.366969 104.068 0.963075 104.411L72.7272 145.743L72.7361 145.747C73.0373 145.885 73.36 145.971 73.6902 146L73.6912 146L73.6921 146C74.0296 146 74.3612 145.912 74.6533 145.743L83.0369 140.917C83.0997 140.868 83.1592 140.816 83.2151 140.76C83.3232 140.684 83.4228 140.596 83.5124 140.499C83.6616 140.308 83.7835 140.097 83.8745 139.873C83.9146 139.746 83.9411 139.615 83.9534 139.482C83.974 139.407 83.9895 139.33 84 139.253V31.0159C84 30.9642 83.984 30.916 83.9798 30.865C83.9754 30.8063 83.9672 30.751 83.957 30.6926ZM31.4974 4.11101L78.2196 31.0144L73.6908 33.6194L26.9807 6.7165L31.4974 4.11101ZM75.6164 36.9484L80.1477 34.342V138.142L75.6164 140.751V36.9484ZM21.2046 10.2814V29.1131C21.2058 29.2289 21.1951 29.3446 21.1726 29.4583C21.0531 29.4192 20.9383 29.367 20.8302 29.3027L5.59412 20.5266L21.2046 10.2814ZM71.7641 140.75L3.8523 101.638V23.9623L18.906 32.6313C19.2746 32.8438 19.6669 33.0124 20.0748 33.1338C20.2034 33.1723 20.3283 33.177 20.4564 33.2038C20.7098 33.2645 20.9681 33.3021 21.2283 33.3163C21.262 33.3171 21.2972 33.3312 21.3306 33.3312C21.5209 33.3219 21.7102 33.2981 21.8968 33.2599C22.0028 33.2437 22.1126 33.2451 22.2163 33.2197C22.5414 33.1429 22.8538 33.02 23.1439 32.8546C24.4166 32.0476 25.1493 30.6146 25.0569 29.113V10.0469L71.7641 36.947V140.75Z" fill="#8A8A8A"/>
</svg>
